<svg xmlns="http://www.w3.org/2000/svg" xmlns:xlink="http://www.w3.org/1999/xlink" width="256" zoomAndPan="magnify" viewBox="0 0 192 37.5" height="50" preserveAspectRatio="xMidYMid meet" version="1.0"><defs><g/><clipPath id="30b685b03f"><path d="M 11 4 L 31.519531 4 L 31.519531 36.761719 L 11 36.761719 Z M 11 4 " clip-rule="nonzero"/></clipPath><clipPath id="76b31db3ab"><path d="M 1.914062 0.492188 L 22 0.492188 L 22 33 L 1.914062 33 Z M 1.914062 0.492188 " clip-rule="nonzero"/></clipPath></defs><g clip-path="url(#30b685b03f)"><path fill="#e87a00" d="M 26.425781 26.574219 L 11.832031 18.148438 L 11.832031 25.046875 L 31.667969 36.5 L 31.667969 4.609375 L 26.425781 4.609375 L 26.425781 26.574219 " fill-opacity="1" fill-rule="nonzero"/></g><g clip-path="url(#76b31db3ab)"><path fill="#ffffff" d="M 1.914062 0.492188 L 1.914062 32.378906 L 7.15625 32.378906 L 7.15625 10.417969 L 21.75 18.84375 L 21.75 11.941406 L 1.914062 0.492188 " fill-opacity="1" fill-rule="nonzero"/></g><g fill="#ffffff" fill-opacity="1"><g transform="translate(34.634916, 22.34851)"><g><path d="M 15.140625 -9.9375 C 15.140625 -9.0625 14.898438 -8.269531 14.421875 -7.5625 C 13.953125 -6.851562 13.269531 -6.332031 12.375 -6 L 15.5625 0 L 10.390625 0 L 7.859375 -5.234375 L 6.140625 -5.234375 L 6.140625 0 L 1.546875 0 L 1.546875 -14.328125 L 10.3125 -14.328125 C 11.332031 -14.328125 12.207031 -14.128906 12.9375 -13.734375 C 13.664062 -13.335938 14.210938 -12.800781 14.578125 -12.125 C 14.953125 -11.457031 15.140625 -10.726562 15.140625 -9.9375 Z M 10.453125 -9.75 C 10.453125 -10.125 10.328125 -10.4375 10.078125 -10.6875 C 9.828125 -10.9375 9.523438 -11.0625 9.171875 -11.0625 L 6.140625 -11.0625 L 6.140625 -8.421875 L 9.171875 -8.421875 C 9.523438 -8.421875 9.828125 -8.546875 10.078125 -8.796875 C 10.328125 -9.054688 10.453125 -9.375 10.453125 -9.75 Z M 10.453125 -9.75 "/></g></g></g><g fill="#ffffff" fill-opacity="1"><g transform="translate(50.829988, 22.34851)"><g><path d="M 8.671875 -14.578125 C 11.140625 -14.578125 13.046875 -13.941406 14.390625 -12.671875 C 15.734375 -11.410156 16.40625 -9.578125 16.40625 -7.171875 C 16.40625 -4.753906 15.734375 -2.910156 14.390625 -1.640625 C 13.046875 -0.378906 11.140625 0.25 8.671875 0.25 C 6.191406 0.25 4.28125 -0.375 2.9375 -1.625 C 1.601562 -2.882812 0.9375 -4.734375 0.9375 -7.171875 C 0.9375 -9.597656 1.601562 -11.4375 2.9375 -12.6875 C 4.28125 -13.945312 6.191406 -14.578125 8.671875 -14.578125 Z M 8.671875 -11.140625 C 7.679688 -11.140625 6.925781 -10.84375 6.40625 -10.25 C 5.894531 -9.65625 5.640625 -8.847656 5.640625 -7.828125 L 5.640625 -6.5 C 5.640625 -5.488281 5.894531 -4.679688 6.40625 -4.078125 C 6.925781 -3.484375 7.679688 -3.1875 8.671875 -3.1875 C 9.648438 -3.1875 10.398438 -3.484375 10.921875 -4.078125 C 11.441406 -4.679688 11.703125 -5.488281 11.703125 -6.5 L 11.703125 -7.828125 C 11.703125 -8.847656 11.441406 -9.65625 10.921875 -10.25 C 10.398438 -10.84375 9.648438 -11.140625 8.671875 -11.140625 Z M 8.671875 -11.140625 "/></g></g></g><g fill="#ffffff" fill-opacity="1"><g transform="translate(68.169958, 22.34851)"><g><path d="M 10.4375 0 L 5.828125 0 L 5.828125 -5.5625 L 0.140625 -14.328125 L 5.4375 -14.328125 L 8.1875 -9.5625 L 8.265625 -9.5625 L 11.015625 -14.328125 L 16.03125 -14.328125 L 10.4375 -5.5625 Z M 10.4375 0 "/></g></g></g><g fill="#ffffff" fill-opacity="1"><g transform="translate(84.36503, 22.34851)"><g><path d="M 11.140625 0 L 10.53125 -2.015625 L 5.515625 -2.015625 L 4.921875 0 L 0.203125 0 L 5.4375 -14.328125 L 10.78125 -14.328125 L 16.015625 0 Z M 6.484375 -5.234375 L 9.578125 -5.234375 L 8.078125 -10.328125 L 8 -10.328125 Z M 6.484375 -5.234375 "/></g></g></g><g fill="#ffffff" fill-opacity="1"><g transform="translate(100.560102, 22.34851)"><g><path d="M 1.546875 -14.328125 L 6.140625 -14.328125 L 6.140625 -3.671875 L 13.5 -3.671875 L 13.5 0 L 1.546875 0 Z M 1.546875 -14.328125 "/></g></g></g><g fill="#ffffff" fill-opacity="1"><g transform="translate(114.444567, 22.34851)"><g/></g></g><g fill="#ffffff" fill-opacity="1"><g transform="translate(121.376394, 22.34851)"><g><path d="M 8.375 -14.578125 C 10.5 -14.578125 12.175781 -14.046875 13.40625 -12.984375 C 14.644531 -11.921875 15.265625 -10.40625 15.265625 -8.4375 L 10.875 -8.4375 C 10.875 -9.269531 10.65625 -9.925781 10.21875 -10.40625 C 9.78125 -10.894531 9.160156 -11.140625 8.359375 -11.140625 C 7.421875 -11.140625 6.734375 -10.847656 6.296875 -10.265625 C 5.859375 -9.679688 5.640625 -8.867188 5.640625 -7.828125 L 5.640625 -6.5 C 5.640625 -5.46875 5.859375 -4.65625 6.296875 -4.0625 C 6.734375 -3.476562 7.40625 -3.1875 8.3125 -3.1875 C 9.195312 -3.1875 9.867188 -3.414062 10.328125 -3.875 C 10.785156 -4.332031 11.015625 -4.976562 11.015625 -5.8125 L 15.265625 -5.8125 C 15.265625 -3.851562 14.660156 -2.351562 13.453125 -1.3125 C 12.253906 -0.269531 10.5625 0.25 8.375 0.25 C 5.925781 0.25 4.070312 -0.375 2.8125 -1.625 C 1.5625 -2.875 0.9375 -4.722656 0.9375 -7.171875 C 0.9375 -9.609375 1.5625 -11.453125 2.8125 -12.703125 C 4.070312 -13.953125 5.925781 -14.578125 8.375 -14.578125 Z M 8.375 -14.578125 "/></g></g></g><g fill="#ffffff" fill-opacity="1"><g transform="translate(137.571466, 22.34851)"><g><path d="M 8.671875 -14.578125 C 11.140625 -14.578125 13.046875 -13.941406 14.390625 -12.671875 C 15.734375 -11.410156 16.40625 -9.578125 16.40625 -7.171875 C 16.40625 -4.753906 15.734375 -2.910156 14.390625 -1.640625 C 13.046875 -0.378906 11.140625 0.25 8.671875 0.25 C 6.191406 0.25 4.28125 -0.375 2.9375 -1.625 C 1.601562 -2.882812 0.9375 -4.734375 0.9375 -7.171875 C 0.9375 -9.597656 1.601562 -11.4375 2.9375 -12.6875 C 4.28125 -13.945312 6.191406 -14.578125 8.671875 -14.578125 Z M 8.671875 -11.140625 C 7.679688 -11.140625 6.925781 -10.84375 6.40625 -10.25 C 5.894531 -9.65625 5.640625 -8.847656 5.640625 -7.828125 L 5.640625 -6.5 C 5.640625 -5.488281 5.894531 -4.679688 6.40625 -4.078125 C 6.925781 -3.484375 7.679688 -3.1875 8.671875 -3.1875 C 9.648438 -3.1875 10.398438 -3.484375 10.921875 -4.078125 C 11.441406 -4.679688 11.703125 -5.488281 11.703125 -6.5 L 11.703125 -7.828125 C 11.703125 -8.847656 11.441406 -9.65625 10.921875 -10.25 C 10.398438 -10.84375 9.648438 -11.140625 8.671875 -11.140625 Z M 8.671875 -11.140625 "/></g></g></g><g fill="#ffffff" fill-opacity="1"><g transform="translate(154.91143, 22.34851)"><g><path d="M 7.75 -14.328125 C 12.757812 -14.328125 15.265625 -11.941406 15.265625 -7.171875 C 15.265625 -2.390625 12.757812 0 7.75 0 L 1.546875 0 L 1.546875 -14.328125 Z M 6.140625 -3.4375 L 7.671875 -3.4375 C 9.597656 -3.4375 10.5625 -4.472656 10.5625 -6.546875 L 10.5625 -7.796875 C 10.5625 -9.859375 9.597656 -10.890625 7.671875 -10.890625 L 6.140625 -10.890625 Z M 6.140625 -3.4375 "/></g></g></g><g fill="#ffffff" fill-opacity="1"><g transform="translate(171.106502, 22.34851)"><g><path d="M 16.203125 0 L 10.625 0 L 7.984375 -4.453125 L 7.890625 -4.453125 L 5.25 0 L 0.078125 0 L 5.203125 -7.578125 L 0.578125 -14.328125 L 6.140625 -14.328125 L 8.3125 -10.65625 L 8.390625 -10.65625 L 10.578125 -14.328125 L 15.71875 -14.328125 L 11.078125 -7.5625 Z M 16.203125 0 "/></g></g></g><g fill="#ffffff" fill-opacity="1"><g transform="translate(69.580291, 34.179149)"><g><path d="M 2 -4.078125 C 2.664062 -4.078125 3.171875 -3.90625 3.515625 -3.5625 C 3.867188 -3.226562 4.046875 -2.722656 4.046875 -2.046875 C 4.046875 -1.367188 3.867188 -0.859375 3.515625 -0.515625 C 3.171875 -0.171875 2.664062 0 2 0 L 0.53125 0 L 0.53125 -4.078125 Z M 1.953125 -0.671875 C 2.367188 -0.671875 2.679688 -0.78125 2.890625 -1 C 3.097656 -1.21875 3.203125 -1.566406 3.203125 -2.046875 C 3.203125 -2.523438 3.097656 -2.867188 2.890625 -3.078125 C 2.679688 -3.296875 2.367188 -3.40625 1.953125 -3.40625 L 1.34375 -3.40625 L 1.34375 -0.671875 Z M 1.953125 -0.671875 "/></g></g></g><g fill="#ffffff" fill-opacity="1"><g transform="translate(73.949503, 34.179149)"><g><path d="M 1.34375 -1.796875 L 1.34375 -0.671875 L 3.28125 -0.671875 L 3.28125 0 L 0.53125 0 L 0.53125 -4.078125 L 3.234375 -4.078125 L 3.234375 -3.40625 L 1.34375 -3.40625 L 1.34375 -2.453125 L 3 -2.453125 L 3 -1.796875 Z M 1.34375 -1.796875 "/></g></g></g><g fill="#ffffff" fill-opacity="1"><g transform="translate(77.463322, 34.179149)"><g><path d="M 2.421875 0 L 1.453125 0 L 0.078125 -4.078125 L 0.9375 -4.078125 L 1.921875 -1.03125 L 1.984375 -1.03125 L 2.96875 -4.078125 L 3.796875 -4.078125 Z M 2.421875 0 "/></g></g></g><g fill="#ffffff" fill-opacity="1"><g transform="translate(81.343339, 34.179149)"><g><path d="M 1.34375 -1.796875 L 1.34375 -0.671875 L 3.28125 -0.671875 L 3.28125 0 L 0.53125 0 L 0.53125 -4.078125 L 3.234375 -4.078125 L 3.234375 -3.40625 L 1.34375 -3.40625 L 1.34375 -2.453125 L 3 -2.453125 L 3 -1.796875 Z M 1.34375 -1.796875 "/></g></g></g><g fill="#ffffff" fill-opacity="1"><g transform="translate(84.857158, 34.179149)"><g><path d="M 2.21875 0.0625 C 1.851562 0.0625 1.523438 -0.015625 1.234375 -0.171875 C 0.953125 -0.328125 0.726562 -0.5625 0.5625 -0.875 C 0.40625 -1.1875 0.328125 -1.578125 0.328125 -2.046875 C 0.328125 -2.503906 0.40625 -2.890625 0.5625 -3.203125 C 0.726562 -3.523438 0.953125 -3.757812 1.234375 -3.90625 C 1.523438 -4.0625 1.851562 -4.140625 2.21875 -4.140625 C 2.59375 -4.140625 2.921875 -4.0625 3.203125 -3.90625 C 3.492188 -3.757812 3.71875 -3.523438 3.875 -3.203125 C 4.039062 -2.890625 4.125 -2.503906 4.125 -2.046875 C 4.125 -1.578125 4.039062 -1.179688 3.875 -0.859375 C 3.71875 -0.546875 3.492188 -0.3125 3.203125 -0.15625 C 2.921875 -0.0078125 2.59375 0.0625 2.21875 0.0625 Z M 2.21875 -0.640625 C 2.570312 -0.640625 2.835938 -0.75 3.015625 -0.96875 C 3.203125 -1.195312 3.296875 -1.554688 3.296875 -2.046875 C 3.296875 -2.523438 3.203125 -2.875 3.015625 -3.09375 C 2.835938 -3.320312 2.570312 -3.4375 2.21875 -3.4375 C 1.875 -3.4375 1.609375 -3.320312 1.421875 -3.09375 C 1.242188 -2.875 1.15625 -2.523438 1.15625 -2.046875 C 1.15625 -1.554688 1.242188 -1.195312 1.421875 -0.96875 C 1.609375 -0.75 1.875 -0.640625 2.21875 -0.640625 Z M 2.21875 -0.640625 "/></g></g></g><g fill="#ffffff" fill-opacity="1"><g transform="translate(89.310232, 34.179149)"><g><path d="M 2.109375 -4.078125 C 2.398438 -4.078125 2.648438 -4.023438 2.859375 -3.921875 C 3.066406 -3.816406 3.222656 -3.664062 3.328125 -3.46875 C 3.429688 -3.28125 3.484375 -3.054688 3.484375 -2.796875 C 3.484375 -2.546875 3.429688 -2.320312 3.328125 -2.125 C 3.222656 -1.9375 3.066406 -1.785156 2.859375 -1.671875 C 2.648438 -1.566406 2.398438 -1.515625 2.109375 -1.515625 L 1.34375 -1.515625 L 1.34375 0 L 0.53125 0 L 0.53125 -4.078125 Z M 2 -2.15625 C 2.445312 -2.15625 2.671875 -2.367188 2.671875 -2.796875 C 2.671875 -3.222656 2.445312 -3.4375 2 -3.4375 L 1.34375 -3.4375 L 1.34375 -2.15625 Z M 2 -2.15625 "/></g></g></g><g fill="#ffffff" fill-opacity="1"><g transform="translate(93.044888, 34.179149)"><g><path d="M 1.265625 0 L 0.53125 0 L 0.53125 -4.078125 L 1.59375 -4.078125 L 2.625 -1.078125 L 2.671875 -1.078125 L 3.703125 -4.078125 L 4.734375 -4.078125 L 4.734375 0 L 3.96875 0 L 3.96875 -2.703125 L 3.90625 -2.703125 L 2.953125 0 L 2.28125 0 L 1.34375 -2.703125 L 1.265625 -2.703125 Z M 1.265625 0 "/></g></g></g><g fill="#ffffff" fill-opacity="1"><g transform="translate(98.31981, 34.179149)"><g><path d="M 1.34375 -1.796875 L 1.34375 -0.671875 L 3.28125 -0.671875 L 3.28125 0 L 0.53125 0 L 0.53125 -4.078125 L 3.234375 -4.078125 L 3.234375 -3.40625 L 1.34375 -3.40625 L 1.34375 -2.453125 L 3 -2.453125 L 3 -1.796875 Z M 1.34375 -1.796875 "/></g></g></g><g fill="#ffffff" fill-opacity="1"><g transform="translate(101.833629, 34.179149)"><g><path d="M 1.3125 0 L 0.53125 0 L 0.53125 -4.078125 L 1.453125 -4.078125 L 3.09375 -1.453125 L 3.171875 -1.46875 L 3.171875 -4.078125 L 3.9375 -4.078125 L 3.9375 0 L 3.109375 0 L 1.375 -2.8125 L 1.3125 -2.796875 Z M 1.3125 0 "/></g></g></g><g fill="#ffffff" fill-opacity="1"><g transform="translate(106.314657, 34.179149)"><g><path d="M 3.265625 -4.078125 L 3.265625 -3.40625 L 2.09375 -3.40625 L 2.09375 0 L 1.296875 0 L 1.296875 -3.40625 L 0.109375 -3.40625 L 0.109375 -4.078125 Z M 3.265625 -4.078125 "/></g></g></g><g fill="#ffffff" fill-opacity="1"><g transform="translate(109.702683, 34.179149)"><g/></g></g><g fill="#ffffff" fill-opacity="1"><g transform="translate(111.052862, 34.179149)"><g><path d="M 1.671875 0.0625 C 1.367188 0.0625 1.109375 0.0078125 0.890625 -0.09375 C 0.671875 -0.195312 0.5 -0.335938 0.375 -0.515625 C 0.257812 -0.703125 0.203125 -0.921875 0.203125 -1.171875 C 0.203125 -1.441406 0.269531 -1.664062 0.40625 -1.84375 C 0.539062 -2.019531 0.742188 -2.164062 1.015625 -2.28125 L 1.015625 -2.34375 C 0.890625 -2.488281 0.800781 -2.625 0.75 -2.75 C 0.695312 -2.882812 0.671875 -3.03125 0.671875 -3.1875 C 0.671875 -3.375 0.710938 -3.535156 0.796875 -3.671875 C 0.890625 -3.816406 1.019531 -3.929688 1.1875 -4.015625 C 1.363281 -4.097656 1.566406 -4.140625 1.796875 -4.140625 C 2.023438 -4.140625 2.21875 -4.101562 2.375 -4.03125 C 2.53125 -3.957031 2.648438 -3.851562 2.734375 -3.71875 C 2.816406 -3.582031 2.859375 -3.429688 2.859375 -3.265625 C 2.859375 -3.023438 2.789062 -2.820312 2.65625 -2.65625 C 2.519531 -2.488281 2.300781 -2.347656 2 -2.234375 L 2 -2.171875 L 2.75 -1.171875 C 2.800781 -1.273438 2.832031 -1.390625 2.84375 -1.515625 C 2.863281 -1.640625 2.875 -1.78125 2.875 -1.9375 L 2.875 -2.078125 L 3.53125 -2.078125 C 3.53125 -1.503906 3.414062 -1.039062 3.1875 -0.6875 C 3.238281 -0.644531 3.28125 -0.617188 3.3125 -0.609375 C 3.34375 -0.597656 3.378906 -0.59375 3.421875 -0.59375 C 3.460938 -0.59375 3.492188 -0.59375 3.515625 -0.59375 C 3.535156 -0.59375 3.5625 -0.597656 3.59375 -0.609375 L 3.640625 -0.59375 L 3.734375 -0.046875 C 3.703125 -0.015625 3.648438 0.00390625 3.578125 0.015625 C 3.515625 0.0234375 3.445312 0.03125 3.375 0.03125 C 3.238281 0.03125 3.117188 0.0078125 3.015625 -0.03125 C 2.910156 -0.0703125 2.8125 -0.140625 2.71875 -0.234375 L 2.65625 -0.234375 C 2.425781 -0.0351562 2.097656 0.0625 1.671875 0.0625 Z M 1.671875 -2.609375 C 1.835938 -2.703125 1.957031 -2.789062 2.03125 -2.875 C 2.113281 -2.96875 2.15625 -3.078125 2.15625 -3.203125 C 2.15625 -3.316406 2.117188 -3.40625 2.046875 -3.46875 C 1.984375 -3.53125 1.898438 -3.5625 1.796875 -3.5625 C 1.671875 -3.5625 1.570312 -3.53125 1.5 -3.46875 C 1.4375 -3.40625 1.40625 -3.3125 1.40625 -3.1875 C 1.40625 -3.101562 1.421875 -3.019531 1.453125 -2.9375 C 1.492188 -2.851562 1.566406 -2.742188 1.671875 -2.609375 Z M 1.765625 -0.609375 C 1.941406 -0.609375 2.09375 -0.640625 2.21875 -0.703125 L 1.3125 -1.859375 C 1.207031 -1.796875 1.128906 -1.710938 1.078125 -1.609375 C 1.023438 -1.515625 1 -1.40625 1 -1.28125 C 1 -1.144531 1.03125 -1.023438 1.09375 -0.921875 C 1.15625 -0.816406 1.242188 -0.738281 1.359375 -0.6875 C 1.472656 -0.632812 1.609375 -0.609375 1.765625 -0.609375 Z M 1.765625 -0.609375 "/></g></g></g><g fill="#ffffff" fill-opacity="1"><g transform="translate(114.87138, 34.179149)"><g/></g></g><g fill="#ffffff" fill-opacity="1"><g transform="translate(116.221559, 34.179149)"><g><path d="M 0.53125 0 L 0.53125 -4.078125 L 2.171875 -4.078125 C 2.585938 -4.078125 2.90625 -3.976562 3.125 -3.78125 C 3.34375 -3.59375 3.453125 -3.328125 3.453125 -2.984375 C 3.453125 -2.734375 3.390625 -2.53125 3.265625 -2.375 C 3.140625 -2.21875 2.953125 -2.097656 2.703125 -2.015625 L 2.703125 -1.953125 C 2.828125 -1.898438 2.925781 -1.816406 3 -1.703125 C 3.082031 -1.597656 3.160156 -1.4375 3.234375 -1.21875 L 3.640625 0 L 2.8125 0 L 2.40625 -1.21875 C 2.363281 -1.34375 2.316406 -1.4375 2.265625 -1.5 C 2.222656 -1.570312 2.160156 -1.625 2.078125 -1.65625 C 1.992188 -1.6875 1.890625 -1.703125 1.765625 -1.703125 L 1.34375 -1.703125 L 1.34375 0 Z M 2.078125 -2.34375 C 2.460938 -2.34375 2.65625 -2.523438 2.65625 -2.890625 C 2.65625 -3.253906 2.460938 -3.4375 2.078125 -3.4375 L 1.34375 -3.4375 L 1.34375 -2.34375 Z M 2.078125 -2.34375 "/></g></g></g><g fill="#ffffff" fill-opacity="1"><g transform="translate(120.042872, 34.179149)"><g><path d="M 3.921875 0 L 3.0625 0 L 2.765625 -0.9375 L 1.203125 -0.9375 L 0.890625 0 L 0.0625 0 L 1.46875 -4.078125 L 2.5 -4.078125 Z M 1.9375 -3.234375 L 1.421875 -1.625 L 2.53125 -1.625 L 2.015625 -3.234375 Z M 1.9375 -3.234375 "/></g></g></g><g fill="#ffffff" fill-opacity="1"><g transform="translate(124.026318, 34.179149)"><g><path d="M 1.3125 0 L 0.53125 0 L 0.53125 -4.078125 L 1.453125 -4.078125 L 3.09375 -1.453125 L 3.171875 -1.46875 L 3.171875 -4.078125 L 3.9375 -4.078125 L 3.9375 0 L 3.109375 0 L 1.375 -2.8125 L 1.3125 -2.796875 Z M 1.3125 0 "/></g></g></g><g fill="#ffffff" fill-opacity="1"><g transform="translate(128.507346, 34.179149)"><g><path d="M 0.53125 0 L 0.53125 -4.078125 L 1.34375 -4.078125 L 1.34375 -2.421875 L 1.421875 -2.421875 L 2.796875 -4.078125 L 3.609375 -4.078125 L 3.609375 -4.015625 L 2.109375 -2.15625 L 3.765625 -0.0625 L 3.765625 0 L 2.859375 0 L 1.421875 -1.765625 L 1.34375 -1.765625 L 1.34375 0 Z M 0.53125 0 "/></g></g></g><g fill="#ffffff" fill-opacity="1"><g transform="translate(132.283933, 34.179149)"><g><path d="M 1.34375 0 L 0.53125 0 L 0.53125 -4.078125 L 1.34375 -4.078125 Z M 1.34375 0 "/></g></g></g><g fill="#ffffff" fill-opacity="1"><g transform="translate(134.156852, 34.179149)"><g><path d="M 1.3125 0 L 0.53125 0 L 0.53125 -4.078125 L 1.453125 -4.078125 L 3.09375 -1.453125 L 3.171875 -1.46875 L 3.171875 -4.078125 L 3.9375 -4.078125 L 3.9375 0 L 3.109375 0 L 1.375 -2.8125 L 1.3125 -2.796875 Z M 1.3125 0 "/></g></g></g><g fill="#ffffff" fill-opacity="1"><g transform="translate(138.63788, 34.179149)"><g><path d="M 1.984375 0.0625 C 1.640625 0.0625 1.34375 -0.015625 1.09375 -0.171875 C 0.84375 -0.328125 0.648438 -0.5625 0.515625 -0.875 C 0.390625 -1.1875 0.328125 -1.578125 0.328125 -2.046875 C 0.328125 -2.503906 0.40625 -2.890625 0.5625 -3.203125 C 0.726562 -3.523438 0.953125 -3.757812 1.234375 -3.90625 C 1.523438 -4.0625 1.859375 -4.140625 2.234375 -4.140625 C 2.628906 -4.140625 2.960938 -4.066406 3.234375 -3.921875 C 3.515625 -3.773438 3.707031 -3.5625 3.8125 -3.28125 L 3.234375 -2.921875 L 3.15625 -2.921875 C 3.070312 -3.097656 2.953125 -3.226562 2.796875 -3.3125 C 2.648438 -3.40625 2.460938 -3.453125 2.234375 -3.453125 C 1.890625 -3.453125 1.625 -3.335938 1.4375 -3.109375 C 1.25 -2.890625 1.15625 -2.535156 1.15625 -2.046875 C 1.15625 -1.546875 1.238281 -1.179688 1.40625 -0.953125 C 1.582031 -0.734375 1.84375 -0.625 2.1875 -0.625 C 2.476562 -0.625 2.691406 -0.691406 2.828125 -0.828125 C 2.972656 -0.960938 3.046875 -1.160156 3.046875 -1.421875 L 3.046875 -1.59375 L 2.078125 -1.59375 L 2.078125 -2.25 L 3.84375 -2.25 L 3.84375 0 L 3.078125 0 L 3.078125 -0.546875 L 3.015625 -0.5625 C 2.929688 -0.363281 2.800781 -0.207031 2.625 -0.09375 C 2.457031 0.0078125 2.242188 0.0625 1.984375 0.0625 Z M 1.984375 0.0625 "/></g></g></g></svg>